<svg xmlns="http://www.w3.org/2000/svg" xmlns:xlink="http://www.w3.org/1999/xlink" width="500" zoomAndPan="magnify" viewBox="0 0 375 374.999991" height="500" preserveAspectRatio="xMidYMid meet" version="1.0"><defs><g/><clipPath id="c1c8af8276"><path d="M 35.085938 36.3125 L 339.914062 36.3125 L 339.914062 341.140625 L 35.085938 341.140625 Z M 35.085938 36.3125 " clip-rule="nonzero"/></clipPath><clipPath id="f7e925e41d"><path d="M 187.5 36.3125 C 103.324219 36.3125 35.085938 104.550781 35.085938 188.726562 C 35.085938 272.902344 103.324219 341.140625 187.5 341.140625 C 271.675781 341.140625 339.914062 272.902344 339.914062 188.726562 C 339.914062 104.550781 271.675781 36.3125 187.5 36.3125 Z M 187.5 36.3125 " clip-rule="nonzero"/></clipPath><clipPath id="a7e6213c4d"><path d="M 95.992188 89.398438 L 278.992188 89.398438 L 278.992188 155.398438 L 95.992188 155.398438 Z M 95.992188 89.398438 " clip-rule="nonzero"/></clipPath><clipPath id="9d45a50412"><path d="M 95.992188 213.101562 L 278.992188 213.101562 L 278.992188 278.914062 L 95.992188 278.914062 Z M 95.992188 213.101562 " clip-rule="nonzero"/></clipPath><clipPath id="24d52642c0"><path d="M 254.652344 183.5625 L 322.902344 183.5625 L 322.902344 196.3125 L 254.652344 196.3125 Z M 254.652344 183.5625 " clip-rule="nonzero"/></clipPath><clipPath id="d220b16779"><path d="M 66.078125 182.378906 L 134.328125 182.378906 L 134.328125 195 L 66.078125 195 Z M 66.078125 182.378906 " clip-rule="nonzero"/></clipPath></defs><rect x="-37.5" width="450" fill="#ffffff" y="-37.499999" height="449.999989" fill-opacity="1"/><rect x="-37.5" width="450" fill="#7ca0a5" y="-37.499999" height="449.999989" fill-opacity="1"/><g clip-path="url(#c1c8af8276)"><g clip-path="url(#f7e925e41d)"><path fill="#ffffff" d="M 35.085938 36.3125 L 339.914062 36.3125 L 339.914062 341.140625 L 35.085938 341.140625 Z M 35.085938 36.3125 " fill-opacity="1" fill-rule="nonzero"/></g></g><g clip-path="url(#a7e6213c4d)"><path fill="#7ca0a5" d="M 187.5 89.414062 C 214.148438 89.414062 238.273438 100.214844 255.734375 117.679688 C 266.160156 128.101562 274.207031 140.902344 279.003906 155.195312 L 277.597656 155.195312 C 272.851562 141.273438 264.972656 128.796875 254.792969 118.621094 C 237.570312 101.398438 213.777344 90.746094 187.5 90.746094 C 161.21875 90.746094 137.425781 101.398438 120.203125 118.621094 C 110.027344 128.800781 102.144531 141.273438 97.398438 155.195312 L 95.992188 155.195312 C 100.789062 140.902344 108.839844 128.105469 119.261719 117.679688 C 136.726562 100.214844 160.851562 89.414062 187.5 89.414062 Z M 187.5 89.414062 " fill-opacity="1" fill-rule="evenodd"/></g><g clip-path="url(#9d45a50412)"><path fill="#7ca0a5" d="M 187.5 278.898438 C 214.148438 278.898438 238.273438 268.097656 255.734375 250.632812 C 266.160156 240.207031 274.207031 227.410156 279.003906 213.117188 L 277.597656 213.117188 C 272.851562 227.039062 264.972656 239.515625 254.792969 249.691406 C 237.570312 266.910156 213.777344 277.5625 187.5 277.5625 C 161.21875 277.5625 137.425781 266.910156 120.203125 249.691406 C 110.027344 239.511719 102.144531 227.039062 97.398438 213.117188 L 95.992188 213.117188 C 100.789062 227.40625 108.839844 240.207031 119.261719 250.632812 C 136.726562 268.09375 160.851562 278.898438 187.5 278.898438 Z M 187.5 278.898438 " fill-opacity="1" fill-rule="evenodd"/></g><g clip-path="url(#24d52642c0)"><path fill="#7ca0a5" d="M 255.671875 189.390625 C 256.710938 188.101562 258.792969 186.390625 261.1875 185.269531 C 263.582031 184.152344 266.292969 183.632812 269.339844 183.664062 C 272.386719 183.691406 275.761719 184.265625 279.886719 185.527344 C 284.007812 186.785156 288.871094 188.734375 293.222656 190.363281 C 297.570312 191.992188 301.410156 193.308594 305.070312 193.769531 C 308.730469 194.230469 312.222656 193.824219 314.871094 192.777344 C 317.515625 191.722656 319.3125 190.023438 320.375 188.753906 C 321.4375 187.488281 321.761719 186.660156 322.125 185.957031 C 322.480469 185.257812 322.867188 184.683594 323.03125 184.726562 C 323.195312 184.769531 323.136719 185.425781 322.855469 186.347656 C 322.570312 187.269531 322.0625 188.457031 320.722656 189.9375 C 319.382812 191.417969 317.203125 193.195312 314.972656 194.363281 C 312.742188 195.539062 310.445312 196.113281 307.300781 196.140625 C 304.148438 196.171875 300.148438 195.652344 296.109375 194.570312 C 292.074219 193.480469 288.007812 191.820312 283.972656 190.109375 C 279.933594 188.394531 275.925781 186.617188 272.050781 185.914062 C 268.171875 185.214844 264.425781 185.589844 261.570312 186.742188 C 258.714844 187.898438 256.761719 189.847656 255.75 190.914062 C 254.742188 191.992188 254.6875 192.191406 254.65625 191.863281 C 254.628906 191.539062 254.628906 190.679688 255.671875 189.390625 Z M 255.671875 189.390625 " fill-opacity="1" fill-rule="evenodd"/></g><g clip-path="url(#d220b16779)"><path fill="#7ca0a5" d="M 67.101562 188.207031 C 68.140625 186.917969 70.222656 185.203125 72.617188 184.085938 C 75.011719 182.964844 77.722656 182.449219 80.769531 182.476562 C 83.8125 182.503906 87.191406 183.078125 91.3125 184.339844 C 95.4375 185.601562 100.300781 187.546875 104.652344 189.175781 C 109 190.804688 112.835938 192.121094 116.5 192.582031 C 120.160156 193.042969 123.652344 192.640625 126.300781 191.589844 C 128.941406 190.535156 130.742188 188.835938 131.804688 187.570312 C 132.867188 186.300781 133.191406 185.472656 133.554688 184.769531 C 133.90625 184.070312 134.296875 183.496094 134.460938 183.539062 C 134.625 183.582031 134.566406 184.242188 134.285156 185.160156 C 134 186.082031 133.488281 187.273438 132.152344 188.75 C 130.8125 190.230469 128.632812 192.007812 126.402344 193.179688 C 124.167969 194.355469 121.875 194.925781 118.730469 194.957031 C 115.578125 194.984375 111.578125 194.46875 107.539062 193.382812 C 103.503906 192.292969 99.4375 190.636719 95.402344 188.921875 C 91.363281 187.207031 87.355469 185.429688 83.480469 184.730469 C 79.601562 184.027344 75.851562 184.402344 73 185.558594 C 70.144531 186.710938 68.191406 188.660156 67.175781 189.730469 C 66.171875 190.804688 66.113281 191.003906 66.085938 190.679688 C 66.058594 190.351562 66.058594 189.496094 67.097656 188.207031 Z M 67.101562 188.207031 " fill-opacity="1" fill-rule="evenodd"/></g><g fill="#7ca0a5" fill-opacity="1"><g transform="translate(125.160293, 160.638623)"><g><path d="M -5.125 -4 L 0.65625 -1.59375 L 0.375 -0.890625 L -6.703125 -3.84375 L -6.484375 -4.375 L 1.359375 -6.609375 L -4.53125 -9.0625 L -4.234375 -9.78125 L 2.84375 -6.828125 L 2.578125 -6.203125 Z M -5.125 -4 "/></g></g></g><g fill="#7ca0a5" fill-opacity="1"><g transform="translate(130.154935, 149.620298)"><g><path d="M -4.671875 -6.953125 L -4.328125 -7.5 L 3.859375 -6.046875 L 3.4375 -5.375 L 0.859375 -5.828125 L -1 -2.921875 L 0.5 -0.796875 L 0.0625 -0.109375 Z M 0.28125 -6 L -3.75 -6.75 L -1.40625 -3.390625 Z M 0.28125 -6 "/></g></g></g><g fill="#7ca0a5" fill-opacity="1"><g transform="translate(136.422122, 140.456033)"><g><path d="M -0.921875 -9.4375 L -2.75 -7.40625 L 2.453125 -2.734375 L 1.953125 -2.171875 L -3.25 -6.84375 L -5.078125 -4.8125 L -5.578125 -5.265625 L -1.421875 -9.890625 Z M -0.921875 -9.4375 "/></g></g></g><g fill="#7ca0a5" fill-opacity="1"><g transform="translate(143.573119, 132.915831)"><g><path d="M -2.1875 -8.078125 L -1.6875 -8.484375 L 5.59375 -4.484375 L 4.96875 -3.984375 L 2.6875 -5.234375 L 0 -3.078125 L 0.734375 -0.59375 L 0.09375 -0.078125 Z M 2.1875 -5.59375 L -1.40625 -7.578125 L -0.25 -3.65625 Z M 2.1875 -5.59375 "/></g></g></g><g fill="#7ca0a5" fill-opacity="1"><g transform="translate(152.446979, 126.234114)"><g><path d="M 0.84375 -0.484375 L -2.9375 -7.15625 L -2.28125 -7.515625 L 1.171875 -1.421875 L 5.03125 -3.609375 L 5.359375 -3.03125 Z M 0.84375 -0.484375 "/></g></g></g><g fill="#7ca0a5" fill-opacity="1"><g transform="translate(161.497361, 121.516564)"><g><path d="M 0.890625 -0.375 L -2.015625 -7.46875 L -1.3125 -7.75 L 1.59375 -0.65625 Z M 0.890625 -0.375 "/></g></g></g><g fill="#7ca0a5" fill-opacity="1"><g transform="translate(167.620881, 119.12191)"><g><path d="M 1.296875 -8.265625 L 1.921875 -8.421875 L 6.9375 -1.8125 L 6.171875 -1.609375 L 4.59375 -3.6875 L 1.25 -2.8125 L 0.90625 -0.234375 L 0.125 -0.03125 Z M 4.28125 -4.21875 L 1.8125 -7.5 L 1.28125 -3.4375 Z M 4.28125 -4.21875 "/></g></g></g><g fill="#7ca0a5" fill-opacity="1"><g transform="translate(178.540969, 116.706787)"><g/></g></g><g fill="#7ca0a5" fill-opacity="1"><g transform="translate(185.167932, 116.034227)"><g><path d="M 0.96875 0.015625 L 1.046875 -7.65625 L 4.21875 -7.625 C 4.550781 -7.625 4.851562 -7.550781 5.125 -7.40625 C 5.40625 -7.257812 5.644531 -7.070312 5.84375 -6.84375 C 6.050781 -6.625 6.207031 -6.367188 6.3125 -6.078125 C 6.425781 -5.785156 6.484375 -5.492188 6.484375 -5.203125 C 6.472656 -4.890625 6.410156 -4.585938 6.296875 -4.296875 C 6.191406 -4.003906 6.039062 -3.742188 5.84375 -3.515625 C 5.644531 -3.296875 5.410156 -3.117188 5.140625 -2.984375 C 4.867188 -2.847656 4.566406 -2.78125 4.234375 -2.78125 L 1.75 -2.8125 L 1.71875 0.015625 Z M 1.75 -3.484375 L 4.203125 -3.453125 C 4.429688 -3.453125 4.640625 -3.5 4.828125 -3.59375 C 5.015625 -3.695312 5.171875 -3.828125 5.296875 -3.984375 C 5.429688 -4.140625 5.535156 -4.320312 5.609375 -4.53125 C 5.679688 -4.75 5.722656 -4.972656 5.734375 -5.203125 C 5.734375 -5.441406 5.691406 -5.664062 5.609375 -5.875 C 5.523438 -6.09375 5.414062 -6.28125 5.28125 -6.4375 C 5.144531 -6.601562 4.976562 -6.726562 4.78125 -6.8125 C 4.59375 -6.90625 4.394531 -6.953125 4.1875 -6.953125 L 1.796875 -6.984375 Z M 1.75 -3.484375 "/></g></g></g><g fill="#7ca0a5" fill-opacity="1"><g transform="translate(195.664234, 116.407404)"><g><path d="M 3.984375 0.78125 C 3.453125 0.675781 2.988281 0.476562 2.59375 0.1875 C 2.195312 -0.101562 1.875 -0.457031 1.625 -0.875 C 1.382812 -1.289062 1.222656 -1.742188 1.140625 -2.234375 C 1.054688 -2.734375 1.054688 -3.222656 1.140625 -3.703125 C 1.234375 -4.203125 1.410156 -4.664062 1.671875 -5.09375 C 1.929688 -5.53125 2.253906 -5.894531 2.640625 -6.1875 C 3.023438 -6.476562 3.453125 -6.6875 3.921875 -6.8125 C 4.398438 -6.945312 4.890625 -6.96875 5.390625 -6.875 C 5.910156 -6.78125 6.367188 -6.582031 6.765625 -6.28125 C 7.171875 -5.976562 7.492188 -5.617188 7.734375 -5.203125 C 7.972656 -4.785156 8.132812 -4.328125 8.21875 -3.828125 C 8.300781 -3.335938 8.300781 -2.859375 8.21875 -2.390625 C 8.125 -1.890625 7.945312 -1.425781 7.6875 -1 C 7.425781 -0.570312 7.101562 -0.210938 6.71875 0.078125 C 6.34375 0.378906 5.914062 0.59375 5.4375 0.71875 C 4.96875 0.84375 4.484375 0.863281 3.984375 0.78125 Z M 1.890625 -3.5625 C 1.816406 -3.15625 1.804688 -2.742188 1.859375 -2.328125 C 1.921875 -1.921875 2.050781 -1.550781 2.25 -1.21875 C 2.445312 -0.882812 2.695312 -0.597656 3 -0.359375 C 3.3125 -0.117188 3.679688 0.0390625 4.109375 0.125 C 4.523438 0.195312 4.925781 0.171875 5.3125 0.046875 C 5.695312 -0.078125 6.035156 -0.265625 6.328125 -0.515625 C 6.617188 -0.773438 6.863281 -1.082031 7.0625 -1.4375 C 7.257812 -1.789062 7.394531 -2.160156 7.46875 -2.546875 C 7.539062 -2.953125 7.539062 -3.359375 7.46875 -3.765625 C 7.40625 -4.171875 7.273438 -4.539062 7.078125 -4.875 C 6.890625 -5.21875 6.640625 -5.503906 6.328125 -5.734375 C 6.023438 -5.960938 5.671875 -6.113281 5.265625 -6.1875 C 4.828125 -6.269531 4.414062 -6.25 4.03125 -6.125 C 3.65625 -6.007812 3.316406 -5.828125 3.015625 -5.578125 C 2.722656 -5.328125 2.476562 -5.023438 2.28125 -4.671875 C 2.09375 -4.316406 1.960938 -3.945312 1.890625 -3.5625 Z M 1.890625 -3.5625 "/></g></g></g><g fill="#7ca0a5" fill-opacity="1"><g transform="translate(207.294144, 118.919013)"><g><path d="M 0.90625 0.328125 L 3.515625 -6.890625 L 4.21875 -6.640625 L 1.84375 -0.046875 L 6.03125 1.46875 L 5.796875 2.09375 Z M 0.90625 0.328125 "/></g></g></g><g fill="#7ca0a5" fill-opacity="1"><g transform="translate(216.709361, 122.595229)"><g><path d="M 6.640625 -5.078125 L 7.203125 -4.765625 L 6.265625 3.484375 L 5.578125 3.09375 L 5.875 0.5 L 2.859375 -1.171875 L 0.8125 0.453125 L 0.109375 0.0625 Z M 6 -0.09375 L 6.5 -4.15625 L 3.28125 -1.609375 Z M 6 -0.09375 "/></g></g></g><g fill="#7ca0a5" fill-opacity="1"><g transform="translate(226.247739, 128.262983)"><g><path d="M 0.765625 0.609375 L 5.53125 -5.390625 L 6.109375 -4.9375 L 3.34375 -1.453125 L 9.421875 -2.296875 L 10.078125 -1.78125 L 5.515625 -1.09375 L 5.4375 4.3125 L 4.78125 3.796875 L 4.890625 -1.046875 L 2.8125 -0.78125 L 1.34375 1.0625 Z M 0.765625 0.609375 "/></g></g></g><g fill="#7ca0a5" fill-opacity="1"><g transform="translate(234.472018, 135.144758)"><g><path d="M 2.671875 3.0625 C 2.304688 2.65625 2.054688 2.210938 1.921875 1.734375 C 1.796875 1.265625 1.757812 0.785156 1.8125 0.296875 C 1.875 -0.179688 2.019531 -0.632812 2.25 -1.0625 C 2.488281 -1.5 2.796875 -1.882812 3.171875 -2.21875 C 3.546875 -2.550781 3.96875 -2.804688 4.4375 -2.984375 C 4.914062 -3.160156 5.398438 -3.242188 5.890625 -3.234375 C 6.378906 -3.234375 6.84375 -3.144531 7.28125 -2.96875 C 7.726562 -2.789062 8.125 -2.507812 8.46875 -2.125 C 8.820312 -1.726562 9.0625 -1.285156 9.1875 -0.796875 C 9.320312 -0.304688 9.351562 0.171875 9.28125 0.640625 C 9.21875 1.117188 9.066406 1.578125 8.828125 2.015625 C 8.597656 2.460938 8.304688 2.847656 7.953125 3.171875 C 7.566406 3.515625 7.140625 3.769531 6.671875 3.9375 C 6.203125 4.113281 5.726562 4.195312 5.25 4.1875 C 4.769531 4.1875 4.304688 4.09375 3.859375 3.90625 C 3.410156 3.726562 3.015625 3.445312 2.671875 3.0625 Z M 3.6875 -1.65625 C 3.375 -1.375 3.113281 -1.050781 2.90625 -0.6875 C 2.707031 -0.320312 2.578125 0.046875 2.515625 0.421875 C 2.460938 0.804688 2.488281 1.1875 2.59375 1.5625 C 2.695312 1.9375 2.890625 2.285156 3.171875 2.609375 C 3.453125 2.929688 3.78125 3.160156 4.15625 3.296875 C 4.539062 3.429688 4.925781 3.488281 5.3125 3.46875 C 5.695312 3.457031 6.078125 3.375 6.453125 3.21875 C 6.828125 3.0625 7.164062 2.847656 7.46875 2.578125 C 7.769531 2.304688 8.019531 1.988281 8.21875 1.625 C 8.414062 1.269531 8.539062 0.894531 8.59375 0.5 C 8.644531 0.113281 8.617188 -0.257812 8.515625 -0.625 C 8.421875 -1 8.234375 -1.34375 7.953125 -1.65625 C 7.660156 -1.976562 7.328125 -2.207031 6.953125 -2.34375 C 6.585938 -2.488281 6.207031 -2.550781 5.8125 -2.53125 C 5.425781 -2.519531 5.046875 -2.4375 4.671875 -2.28125 C 4.304688 -2.125 3.976562 -1.914062 3.6875 -1.65625 Z M 3.6875 -1.65625 "/></g></g></g><g fill="#7ca0a5" fill-opacity="1"><g transform="translate(242.107521, 144.241618)"><g><path d="M 7.015625 -3.25 L 2.734375 2.625 L 9.890625 1.40625 L 10.3125 2.078125 L 2.109375 3.40625 L 1.765625 2.84375 L 6.59375 -3.921875 Z M 7.015625 -3.25 "/></g></g></g><g fill="#7ca0a5" fill-opacity="1"><g transform="translate(247.691106, 153.858197)"><g><path d="M 8.375 0.203125 L 8.609375 0.796875 L 2.703125 6.640625 L 2.40625 5.90625 L 4.265625 4.078125 L 2.953125 0.875 L 0.359375 0.875 L 0.046875 0.109375 Z M 4.75 3.6875 L 7.671875 0.828125 L 3.578125 0.8125 Z M 4.75 3.6875 "/></g></g></g><g fill="#7ca0a5" fill-opacity="1"><g transform="translate(131.560773, 228.243659)"><g><path d="M 3.234375 2.5625 C 3.554688 2.914062 3.894531 3.144531 4.25 3.25 C 4.601562 3.363281 4.953125 3.390625 5.296875 3.328125 C 5.648438 3.273438 5.992188 3.144531 6.328125 2.9375 C 6.660156 2.726562 6.972656 2.488281 7.265625 2.21875 L 10.09375 -0.40625 L 10.59375 0.140625 L 7.765625 2.765625 C 7.378906 3.117188 6.972656 3.410156 6.546875 3.640625 C 6.128906 3.878906 5.707031 4.023438 5.28125 4.078125 C 4.851562 4.128906 4.421875 4.070312 3.984375 3.90625 C 3.554688 3.75 3.144531 3.457031 2.75 3.03125 C 2.332031 2.582031 2.0625 2.128906 1.9375 1.671875 C 1.820312 1.222656 1.804688 0.785156 1.890625 0.359375 C 1.984375 -0.0664062 2.160156 -0.476562 2.421875 -0.875 C 2.691406 -1.269531 3.007812 -1.632812 3.375 -1.96875 L 6.203125 -4.59375 L 6.703125 -4.046875 L 3.875 -1.421875 C 3.570312 -1.140625 3.304688 -0.835938 3.078125 -0.515625 C 2.859375 -0.203125 2.707031 0.117188 2.625 0.453125 C 2.539062 0.796875 2.535156 1.144531 2.609375 1.5 C 2.691406 1.863281 2.898438 2.21875 3.234375 2.5625 Z M 3.234375 2.5625 "/></g></g></g><g fill="#7ca0a5" fill-opacity="1"><g transform="translate(140.771293, 237.473672)"><g><path d="M 5.375 -5.546875 L 5.34375 -1.359375 L 9.390625 -2.484375 L 10.046875 -1.984375 L 5.34375 -0.671875 L 5.3125 4.0625 L 4.65625 3.5625 L 4.6875 -0.5 L 0.796875 0.609375 L 0.109375 0.078125 L 4.6875 -1.171875 L 4.6875 -6.0625 Z M 5.375 -5.546875 "/></g></g></g><g fill="#7ca0a5" fill-opacity="1"><g transform="translate(150.282897, 244.239485)"><g><path d="M 9.125 -3.796875 L 0.984375 0.53125 L 0.265625 0.140625 L 8.390625 -4.203125 Z M 9.125 -3.796875 "/></g></g></g><g fill="#7ca0a5" fill-opacity="1"><g transform="translate(160.485711, 249.339102)"><g><path d="M 4.0625 0.703125 C 4.519531 0.859375 4.929688 0.898438 5.296875 0.828125 C 5.660156 0.765625 5.984375 0.617188 6.265625 0.390625 C 6.546875 0.171875 6.78125 -0.101562 6.96875 -0.4375 C 7.15625 -0.78125 7.3125 -1.140625 7.4375 -1.515625 L 8.671875 -5.171875 L 9.375 -4.921875 L 8.140625 -1.265625 C 7.972656 -0.773438 7.757812 -0.328125 7.5 0.078125 C 7.25 0.484375 6.945312 0.8125 6.59375 1.0625 C 6.238281 1.3125 5.832031 1.46875 5.375 1.53125 C 4.914062 1.601562 4.410156 1.546875 3.859375 1.359375 C 3.273438 1.160156 2.820312 0.890625 2.5 0.546875 C 2.175781 0.210938 1.953125 -0.160156 1.828125 -0.578125 C 1.710938 -1.003906 1.675781 -1.453125 1.71875 -1.921875 C 1.769531 -2.398438 1.875 -2.867188 2.03125 -3.328125 L 3.265625 -6.984375 L 3.96875 -6.75 L 2.734375 -3.09375 C 2.609375 -2.707031 2.519531 -2.316406 2.46875 -1.921875 C 2.425781 -1.535156 2.445312 -1.175781 2.53125 -0.84375 C 2.613281 -0.507812 2.773438 -0.207031 3.015625 0.0625 C 3.265625 0.34375 3.613281 0.554688 4.0625 0.703125 Z M 4.0625 0.703125 "/></g></g></g><g fill="#7ca0a5" fill-opacity="1"><g transform="translate(172.898032, 252.972534)"><g><path d="M 0.953125 0.171875 L 2.359375 -7.375 L 3.09375 -7.234375 L 1.6875 0.3125 Z M 0.953125 0.171875 "/></g></g></g><g fill="#7ca0a5" fill-opacity="1"><g transform="translate(180.148022, 254.091216)"><g/></g></g><g fill="#7ca0a5" fill-opacity="1"><g transform="translate(187.671789, 254.562966)"><g><path d="M 0.96875 -0.046875 L 0.546875 -7.703125 L 3.140625 -7.84375 C 3.753906 -7.882812 4.289062 -7.816406 4.75 -7.640625 C 5.21875 -7.460938 5.613281 -7.207031 5.9375 -6.875 C 6.269531 -6.550781 6.523438 -6.160156 6.703125 -5.703125 C 6.890625 -5.253906 7 -4.765625 7.03125 -4.234375 C 7.0625 -3.648438 7 -3.117188 6.84375 -2.640625 C 6.695312 -2.160156 6.472656 -1.742188 6.171875 -1.390625 C 5.867188 -1.035156 5.5 -0.753906 5.0625 -0.546875 C 4.625 -0.335938 4.125 -0.21875 3.5625 -0.1875 Z M 6.265625 -4.203125 C 6.234375 -4.671875 6.140625 -5.085938 5.984375 -5.453125 C 5.835938 -5.828125 5.632812 -6.148438 5.375 -6.421875 C 5.113281 -6.691406 4.800781 -6.890625 4.4375 -7.015625 C 4.070312 -7.148438 3.65625 -7.203125 3.1875 -7.171875 L 1.34375 -7.078125 L 1.6875 -0.765625 L 3.53125 -0.859375 C 4.007812 -0.890625 4.421875 -0.992188 4.765625 -1.171875 C 5.117188 -1.359375 5.410156 -1.597656 5.640625 -1.890625 C 5.867188 -2.191406 6.035156 -2.539062 6.140625 -2.9375 C 6.242188 -3.332031 6.285156 -3.753906 6.265625 -4.203125 Z M 6.265625 -4.203125 "/></g></g></g><g fill="#7ca0a5" fill-opacity="1"><g transform="translate(200.211039, 253.431189)"><g><path d="M 5.84375 -1.984375 L 5.984375 -1.328125 L 0.953125 -0.21875 L -0.71875 -7.703125 L 4.203125 -8.796875 L 4.34375 -8.140625 L 0.140625 -7.203125 L 0.75 -4.5 L 4.421875 -5.3125 L 4.5625 -4.6875 L 0.890625 -3.875 L 1.53125 -1.03125 Z M 5.84375 -1.984375 "/></g></g></g><g fill="#7ca0a5" fill-opacity="1"><g transform="translate(211.266526, 250.572149)"><g><path d="M 2.78125 -7.796875 C 2.476562 -7.953125 2.132812 -8.03125 1.75 -8.03125 C 1.363281 -8.039062 0.957031 -7.960938 0.53125 -7.796875 C -0.101562 -7.546875 -0.515625 -7.242188 -0.703125 -6.890625 C -0.898438 -6.546875 -0.921875 -6.171875 -0.765625 -5.765625 C -0.671875 -5.535156 -0.554688 -5.367188 -0.421875 -5.265625 C -0.296875 -5.160156 -0.132812 -5.085938 0.0625 -5.046875 C 0.257812 -5.015625 0.5 -5.007812 0.78125 -5.03125 C 1.0625 -5.0625 1.382812 -5.101562 1.75 -5.15625 C 2.164062 -5.238281 2.546875 -5.285156 2.890625 -5.296875 C 3.242188 -5.316406 3.554688 -5.296875 3.828125 -5.234375 C 4.097656 -5.171875 4.332031 -5.054688 4.53125 -4.890625 C 4.726562 -4.722656 4.894531 -4.476562 5.03125 -4.15625 C 5.15625 -3.820312 5.195312 -3.507812 5.15625 -3.21875 C 5.125 -2.925781 5.023438 -2.65625 4.859375 -2.40625 C 4.703125 -2.15625 4.476562 -1.925781 4.1875 -1.71875 C 3.90625 -1.519531 3.578125 -1.347656 3.203125 -1.203125 C 2.097656 -0.765625 1.003906 -0.726562 -0.078125 -1.09375 L 0.0625 -1.8125 C 0.25 -1.726562 0.453125 -1.660156 0.671875 -1.609375 C 0.890625 -1.554688 1.125 -1.53125 1.375 -1.53125 C 1.632812 -1.53125 1.898438 -1.550781 2.171875 -1.59375 C 2.441406 -1.644531 2.71875 -1.722656 3 -1.828125 C 3.5625 -2.054688 3.957031 -2.332031 4.1875 -2.65625 C 4.425781 -2.988281 4.460938 -3.363281 4.296875 -3.78125 C 4.210938 -4.007812 4.097656 -4.179688 3.953125 -4.296875 C 3.804688 -4.410156 3.617188 -4.484375 3.390625 -4.515625 C 3.160156 -4.554688 2.894531 -4.5625 2.59375 -4.53125 C 2.300781 -4.507812 1.957031 -4.46875 1.5625 -4.40625 C 1.15625 -4.351562 0.789062 -4.316406 0.46875 -4.296875 C 0.15625 -4.273438 -0.125 -4.296875 -0.375 -4.359375 C -0.625 -4.421875 -0.835938 -4.53125 -1.015625 -4.6875 C -1.191406 -4.851562 -1.335938 -5.082031 -1.453125 -5.375 C -1.585938 -5.707031 -1.640625 -6.023438 -1.609375 -6.328125 C -1.585938 -6.628906 -1.492188 -6.910156 -1.328125 -7.171875 C -1.171875 -7.441406 -0.957031 -7.679688 -0.6875 -7.890625 C -0.414062 -8.097656 -0.09375 -8.273438 0.28125 -8.421875 C 0.75 -8.609375 1.195312 -8.703125 1.625 -8.703125 C 2.0625 -8.703125 2.484375 -8.632812 2.890625 -8.5 Z M 2.78125 -7.796875 "/></g></g></g><g fill="#7ca0a5" fill-opacity="1"><g transform="translate(221.607645, 246.018441)"><g><path d="M 0.84375 -0.46875 L -2.875 -7.1875 L -2.21875 -7.546875 L 1.5 -0.828125 Z M 0.84375 -0.46875 "/></g></g></g><g fill="#7ca0a5" fill-opacity="1"><g transform="translate(228.059795, 242.27183)"><g><path d="M 4.546875 -4.8125 C 4.441406 -3.757812 4.015625 -2.953125 3.265625 -2.390625 C 2.847656 -2.078125 2.398438 -1.875 1.921875 -1.78125 C 1.441406 -1.695312 0.960938 -1.707031 0.484375 -1.8125 C 0.00390625 -1.914062 -0.441406 -2.097656 -0.859375 -2.359375 C -1.285156 -2.617188 -1.644531 -2.945312 -1.9375 -3.34375 C -2.25 -3.75 -2.472656 -4.191406 -2.609375 -4.671875 C -2.753906 -5.160156 -2.804688 -5.640625 -2.765625 -6.109375 C -2.722656 -6.585938 -2.59375 -7.039062 -2.375 -7.46875 C -2.15625 -7.90625 -1.84375 -8.273438 -1.4375 -8.578125 C -1.132812 -8.804688 -0.832031 -8.976562 -0.53125 -9.09375 C -0.226562 -9.21875 0.0625 -9.289062 0.34375 -9.3125 C 0.625 -9.34375 0.894531 -9.328125 1.15625 -9.265625 C 1.425781 -9.210938 1.675781 -9.128906 1.90625 -9.015625 L 1.671875 -8.34375 C 1.191406 -8.570312 0.722656 -8.648438 0.265625 -8.578125 C -0.191406 -8.515625 -0.625 -8.332031 -1.03125 -8.03125 C -1.363281 -7.78125 -1.613281 -7.476562 -1.78125 -7.125 C -1.957031 -6.78125 -2.050781 -6.410156 -2.0625 -6.015625 C -2.070312 -5.628906 -2.015625 -5.242188 -1.890625 -4.859375 C -1.765625 -4.484375 -1.578125 -4.132812 -1.328125 -3.8125 C -1.066406 -3.457031 -0.757812 -3.164062 -0.40625 -2.9375 C -0.0507812 -2.71875 0.3125 -2.566406 0.6875 -2.484375 C 1.070312 -2.410156 1.453125 -2.410156 1.828125 -2.484375 C 2.210938 -2.554688 2.570312 -2.710938 2.90625 -2.953125 C 3.25 -3.210938 3.519531 -3.546875 3.71875 -3.953125 C 3.914062 -4.359375 4.035156 -4.851562 4.078125 -5.4375 L 3.3125 -6.453125 L 1.9375 -5.421875 L 1.578125 -5.90625 L 3.453125 -7.3125 L 5.71875 -4.28125 L 5.21875 -3.90625 Z M 4.546875 -4.8125 "/></g></g></g><g fill="#7ca0a5" fill-opacity="1"><g transform="translate(237.930174, 234.36057)"><g><path d="M -3.421875 -5.53125 L 1.171875 -1.265625 L 0.65625 -0.703125 L -4.953125 -5.9375 L -4.5625 -6.359375 L 3.578125 -5.71875 L -1.09375 -10.078125 L -0.578125 -10.640625 L 5.03125 -5.40625 L 4.578125 -4.921875 Z M -3.421875 -5.53125 "/></g></g></g><g fill="#7ca0a5" fill-opacity="1"><g transform="translate(164.222339, 206.911774)"><g><path d="M 40.105469 0.554688 L 41.007812 0.554688 L 41.007812 -39.691406 C 41.007812 -45.371094 41.628906 -46.964844 43.777344 -47.585938 L 43.777344 -48.488281 L 35.050781 -48.488281 L 35.050781 -47.585938 C 38.167969 -46.753906 39.828125 -44.816406 39.828125 -36.917969 L 39.828125 -9.28125 L 9.558594 -48.488281 L 2.769531 -48.488281 L 2.769531 -47.585938 C 5.542969 -46.964844 6.371094 -45.371094 6.371094 -39.691406 L 6.371094 -8.796875 C 6.371094 -3.117188 5.679688 -1.523438 3.601562 -0.902344 L 3.601562 0 L 12.261719 0 L 12.261719 -0.902344 C 9.144531 -1.730469 7.480469 -3.671875 7.480469 -11.566406 L 7.480469 -41.90625 Z M 40.105469 0.554688 "/></g></g></g></svg>